<?xml version="1.0" encoding="utf-8"?>
<!-- Generator: Adobe Illustrator 26.0.2, SVG Export Plug-In . SVG Version: 6.00 Build 0)  -->
<svg version="1.1" id="Layer_1" xmlns="http://www.w3.org/2000/svg" xmlns:xlink="http://www.w3.org/1999/xlink" x="0px" y="0px"
	 viewBox="0 0 145 164" style="enable-background:new 0 0 145 164;" xml:space="preserve">
<style type="text/css">
	.st0{fill:#A51C30;}
	.st1{fill:#FFFFFF;}
</style>
<g>
	<path class="st0" d="M12.1,10h121.1v45.7c0,20.9-7.9,65.4-60,98.5c0,0-56.7-23.6-61.1-98.5L12.1,10z"/>
	<path d="M51.9,82.1c-0.3,0-0.6,0.1-0.8,0.3c-0.4,0.4-0.7,0.9-0.7,0.9C50,84,49,84.2,48.1,84.1c-0.9,0-1.6-0.2-1.6-0.2l0,0l0,0
		c-1.3,0.4-1.8,1-2.1,1.4c-0.1,0.2-0.1,0.4-0.1,0.6c0,0.1,0,0.2,0,0.2v4.7c0,0.3-0.2,0.4-0.3,0.5c-0.2,0.1-0.4,0.2-0.6,0.2
		c-0.5,0-0.9,0-0.9,0h0c-1.6-0.3-2.7,0.1-3.4,0.5c-0.7,0.5-0.9,1-0.9,1c-0.7,0.9-0.2,2.2-0.2,2.2v0c0,0.1,0.1,0.2,0.2,0.3
		c0,0,0,0,0,0c0.6,1.7,2.9,1.7,2.9,1.7c0.8,0.6,2.3,0.2,2.3,0.2c0.4,0,0.7,0.2,0.8,0.4c0.1,0.3,0,0.6,0,0.6l0,0l0,0
		c0,0.1,0,0.3,0.1,0.7c0,0.4,0,0.9,0,1.5c0,1.2,0,2.7,0,4.2c0,3-0.1,5.9-0.1,5.9c0,1-0.2,1.6-0.2,1.6l0,0v0c0,0.1,0,0.1-0.1,0.1
		c-0.1,0-0.2,0.1-0.3,0.1c-0.3,0.1-0.6,0.1-1,0.1c-0.8,0-1.5-0.1-1.5-0.1l0,0l0,0c-2.2,0.2-2.8,2.2-2.8,2.2v0
		c-0.2,0.4-0.2,0.8,0,1.2c0.1,0.2,0.1,0.4,0.2,0.5c0.4,0.9,1.4,1.7,1.4,1.7c0,0.4,3.9,0.6,3.9,0.6c0.2,0.1,0.4,0.2,0.5,0.4
		c0,0,0,0.1,0,0.1c0.1,0.4,0.1,0.7,0.1,0.7c0,0.1,0,0.2,0,0.4c0,0.2,0,0.4,0,0.7c0,0.6,0,1.2,0.1,1.9c0.1,1.3,0.2,2.6,0.2,2.6l0,0v0
		c0,0.1,0.1,0.2,0.2,0.3c0,0,0,0,0,0c0.2,1.2,4.1,0.8,4.1,0.8s13.8-0.3,17.5-0.3c0.5,0,0.9,0,0.9,0.1c0.4,0,1.5-0.2,1.5-0.2l1.4,1
		c0.6,0.5,1.2,0.6,1.7,0.5c0.1,0,0.2,0,0.3,0c1.1-0.2,1.9-0.9,1.9-0.9l2.1-0.4c0.4,0,17.2-0.2,17.2-0.2c1.4,0.4,2.1-0.2,2.1-0.2
		l2.7-0.2c0.1,0,0.2,0,0.3,0c0.7-0.1,1-0.6,1.2-1.2c0.1-0.1,0.1-0.2,0.1-0.3c0.2-0.6,0.2-1.2,0.2-1.2v-3.5c0-0.3,0.1-0.5,0.2-0.7
		c0.4-0.7,0.9-0.8,0.9-0.8l2.5-0.4l1.2-0.6c0.5-0.1,0.7-0.5,0.9-0.9c0-0.1,0.1-0.1,0.1-0.2c0.2-0.4,0.2-0.8,0.2-1.2
		c0-0.8-0.2-1.5-0.2-1.5l0,0l0,0c-0.5-0.9-1.5-1.3-2.4-1.4c-0.9-0.2-1.7-0.1-1.7-0.1h0c-1,0.1-1.4-0.2-1.5-0.5
		c-0.2-0.3-0.1-0.6-0.1-0.6v0l0.2-12.8c0.1-0.5,0.2-0.9,0.4-1.2c0.2-0.3,0.3-0.5,0.3-0.5c0.6,0.2,2.7-0.4,2.7-0.4
		c1.2-0.1,1.7-0.8,1.9-1.5c0,0,0-0.1,0.1-0.1c0.3-0.6,0.3-1.1,0.3-1.1c0.1-0.8-0.5-1.5-1-1.9c-0.6-0.5-1.2-0.7-1.2-0.7l0,0h-2.9
		c-0.1,0-0.1-0.1-0.2-0.1c-0.1-0.1-0.1-0.2-0.2-0.4c-0.1-0.3-0.1-0.8-0.2-1.2c0-0.9,0.1-1.8,0.1-1.8l0,0v-1.7c0-0.8-0.6-1.4-1.1-1.7
		s-1.1-0.5-1.1-0.5l0,0h-3.7c-0.1-0.1-0.2-0.3-0.3-0.4c-0.2-0.1-0.4-0.2-0.6-0.3c-0.4-0.1-0.8-0.2-0.8-0.2c-0.7-0.2-1.7-0.2-1.7-0.2
		h-0.1l0,0c-1.3,0.9-3.5,1.3-5.5,1.4c-1.9,0.1-3.5,0-3.5,0l-6.5-0.4l-0.1,0.1c0,0,0,0-0.1,0c-0.1,0-0.2,0-0.3,0.1
		c-0.2,0-0.5,0.1-0.8,0.1c-0.5,0.1-1.1,0.1-1.1,0.1l-0.1,0l0,0.1c-0.2,0.5-0.7,0.7-0.7,0.7l-0.6,0.2c-0.4-0.3-1-0.6-1.5-0.7
		c-0.6-0.2-1.1-0.3-1.1-0.3c0,0,0,0,0,0c0,0,0,0-0.1,0c0,0-0.1,0-0.1,0c-0.1,0-0.2,0-0.3,0c-0.3,0-0.6,0-1.1,0c-0.9,0-2,0.1-3.1,0.1
		c-2.3,0.1-4.5,0.3-4.5,0.3c-2.6,0.1-4.3-0.3-5.4-0.7c-1.1-0.4-1.5-0.9-1.5-0.9C52.5,82.3,52.2,82.2,51.9,82.1L51.9,82.1z
		 M51.9,82.5c0.2,0,0.4,0.1,0.6,0.4l0,0l0,0c0,0,0.5,0.5,1.6,0.9c1.1,0.4,2.9,0.9,5.5,0.8h0c0,0,2.2-0.2,4.5-0.3
		c1.1-0.1,2.3-0.1,3.1-0.1c0.4,0,0.8,0,1.1,0c0.1,0,0.2,0,0.3,0c0,0,0,0,0.1,0l0,0l0,0c0,0,0.5,0.1,1.1,0.3c0.6,0.2,1.3,0.5,1.5,0.7
		l0.1,0.1l0.7-0.2c0,0,0.4-0.3,0.7-0.7c-0.2,0.6-0.8,0.8-0.8,0.8l-0.6,0.4c-0.6-0.6-2.7-1-2.7-1c-0.2-0.2-9.1,0.4-9.1,0.4
		c-5.2,0.2-7-1.7-7-1.7c-1-1.4-2.1,0.6-2.1,0.6c-1,1.4-4.1,0.6-4.1,0.6c-1.1,0.4-1.7,0.8-1.9,1.2c0-0.1,0-0.2,0.1-0.2
		c0.2-0.4,0.7-0.8,1.8-1.2c0.1,0,0.8,0.2,1.6,0.2c0.9,0,2-0.1,2.6-0.9l0,0l0,0c0,0,0.3-0.5,0.6-0.8C51.5,82.6,51.7,82.5,51.9,82.5
		L51.9,82.5z M90.8,82.8c0.1,0,1,0,1.6,0.2l0,0l0,0c0,0,0.4,0.1,0.7,0.2c0.2,0.1,0.4,0.1,0.5,0.2c0,0,0,0,0.1,0
		c-0.5-0.3-1.3-0.4-1.3-0.4C91.8,82.8,90.7,82.8,90.8,82.8c-2.7,1.9-9.2,1.5-9.2,1.5l-6.4-0.4c-0.2,0.2-2.2,0.4-2.3,0.4c0,0,0,0,0,0
		c0,0,0.5,0,1-0.1c0.3,0,0.6-0.1,0.8-0.1c0.1,0,0.2-0.1,0.3-0.1c0,0,0.1,0,0.1-0.1l6.4,0.4c0,0,1.6,0.1,3.6,0
		C87.1,84.1,89.4,83.7,90.8,82.8L90.8,82.8z M94,83.8h3.7c0,0,0.3,0.1,0.7,0.3c-0.3-0.2-0.6-0.3-0.6-0.3L94,83.8
		C94,83.8,94,83.8,94,83.8L94,83.8z M98.4,84.2c0.1,0,0.2,0.1,0.3,0.1c0,0,0,0,0.1,0.1C98.7,84.3,98.6,84.2,98.4,84.2L98.4,84.2z
		 M99.9,90.9c0,0,0,0.1,0.1,0.1c0.1,0.1,0.2,0.2,0.4,0.3l0,0h2.9c0,0,0.5,0.2,1.1,0.7c0.4,0.3,0.7,0.7,0.8,1.1
		c-0.4-0.6-1.1-1.1-1.5-1.3c-0.2-0.1-0.4-0.2-0.4-0.2h-2.9C100.2,91.5,100,91.2,99.9,90.9L99.9,90.9z M44.2,91.5c-0.5,1-2,0.6-2,0.6
		c-3.1-0.6-4.1,1.5-4.1,1.5c0,0,0,0.1-0.1,0.1c0-0.2,0.1-0.3,0.2-0.4l0,0c0,0,0.2-0.5,0.8-0.9c0.6-0.4,1.6-0.8,3.1-0.5
		c0,0,0.5,0.1,1,0.1c0.3,0,0.5-0.1,0.8-0.3C44.1,91.6,44.2,91.6,44.2,91.5L44.2,91.5z M99.7,112c0.3,0.4,0.8,0.7,1.8,0.6
		c0,0,0.8-0.1,1.6,0.1c0.9,0.2,1.8,0.5,2.1,1.2c0,0,0,0.1,0,0.1c-1-1.4-3.8-1.2-3.8-1.2C100.1,113,99.8,112.4,99.7,112L99.7,112z
		 M44,113C44,113,43.9,113,44,113c0,0.2-0.1,0.3-0.2,0.3c-0.1,0.1-0.2,0.1-0.4,0.2c-0.9,0.2-2.6,0-2.6,0c-1.5,0.1-2.2,1.2-2.5,1.7
		c0,0,0.6-1.8,2.5-2c0,0,0.8,0.1,1.5,0.1c0.4,0,0.8,0,1.1-0.1C43.7,113.2,43.8,113.1,44,113C43.9,113,43.9,113,44,113L44,113z
		 M58.4,24.7L58.4,24.7c-3.3,2.7-8,1.5-8,1.5l0,0h0c-4.6,0-6,0.2-6,0.2l-0.1,0l0,0c-0.5,0.6-1,0.6-1.6,0.4c-0.5-0.1-0.9-0.4-0.9-0.4
		c-0.1-0.1-0.2-0.2-0.4-0.3C41.2,26.1,41,26,40.8,26c-0.4-0.1-0.8-0.1-0.8-0.1h0l0,0c-4.5,0.3-7.4,0-9.1-0.3
		c-0.8-0.2-1.4-0.4-1.7-0.5c-0.3-0.1-0.5-0.2-0.5-0.2l0,0c-0.1-0.1-0.1-0.1-0.2-0.1c-0.1,0-0.2,0-0.3-0.1c-0.2,0-0.4,0-0.6-0.1
		c-0.4,0-0.9,0-0.9,0h-0.1l0,0.1c-0.2,0.4-0.7,1.1-0.8,1.2c0,0-0.1,0-0.2,0c-0.1,0-0.3,0-0.4,0c-0.3,0-0.8,0-1.2,0
		c-0.8,0-1.6-0.1-1.6-0.1l0,0h0c-0.9,0-1.4,0.3-1.7,0.6c-0.3,0.3-0.4,0.6-0.4,0.6l0,0l-0.2,4v0c0.1,1.2,0,1.7-0.1,1.9
		c0,0.1,0,0.1,0,0.1l-0.1-0.1l-0.1,0.1c-0.1,0.1-0.3,0.2-0.6,0.3c-0.3,0.1-0.7,0.1-1,0.1c-0.7,0-1.4,0-1.4,0l0,0l0,0
		c-0.6,0.1-1,0.3-1.3,0.7c-0.3,0.4-0.5,0.8-0.6,1.3c-0.2,0.9-0.2,1.7-0.2,1.7v0c0.1,0.6,0.4,1,0.8,1.2c0.4,0.3,0.9,0.4,1.3,0.4
		c0.9,0.1,1.7,0,1.7-0.1h0c1.1,0.1,1.5,0.4,1.6,0.7c0.1,0.3,0.1,0.5,0.1,0.5l0,0v0c0,0.4,0.1,3.8,0.1,7.1c0.1,3.3,0.1,6.5,0.1,6.5
		c0,0.4-0.2,0.7-0.3,0.9c-0.1,0.2-0.3,0.2-0.5,0.3c-0.3,0.1-0.7-0.1-0.7-0.1l0,0h0c-2.3,0-3.4,0.8-3.8,1.6C14.8,57.2,15,58,15,58
		c0.1,1.5,1.1,2.2,2,2.5c0.9,0.3,1.8,0.2,1.8,0.2l0,0c1.1,0,1.6,0.3,1.8,0.5c0.2,0.3,0.1,0.5,0.1,0.5l0,0.1l0,0.1c0,0,0,0.1,0,0.3
		c0,0.2,0,0.4,0,0.6c0,0.5,0,1.1-0.1,1.7c-0.1,1.2-0.2,2.3-0.2,2.3v0l0,0c0.2,1.2,0.9,1.7,1.5,1.8c0.6,0.1,1,0,1.1,0h0l16.5,0.4
		c2.4,1.7,3.9,1.8,4.8,1.3c0.9-0.4,1.1-1.3,1.1-1.3l0.3,0c0.2,0,0.5,0,1.1,0.1c0.5,0,1.2,0,2,0c1.6,0,3.6,0,5.5,0c2,0,3.9,0,5.4,0
		c1.5,0,2.5,0,2.6,0h0c0.7,0.2,1.2,0.1,1.6,0c0.4-0.2,0.7-0.4,0.9-0.7c0.4-0.6,0.4-1.2,0.4-1.2v0l0.2-4.9c0.1-0.3,0.4-0.6,0.8-0.7
		c0.4-0.1,0.7-0.2,0.7-0.2c2.3,0.3,3.4-0.5,3.9-1.4c0.5-0.9,0.4-1.9,0.4-1.9v0c-0.1-1.5-1-2.2-1.8-2.6c-0.8-0.3-1.6-0.3-1.6-0.3l0,0
		c-1.1,0-1.6-0.4-1.9-0.8c-0.3-0.4-0.3-0.7-0.3-0.7v0c0.1-0.4,0.1-1.3,0.1-2.5c0-1.2,0-2.7,0.1-4.2c0-3,0-5.7,0-5.7
		c0-0.3,0.1-0.7,0.3-1c0.1-0.3,0.2-0.5,0.3-0.5c1.3,0.1,2.2,0.1,2.9-0.2c0.7-0.3,1.2-0.7,1.4-1.1c0.5-0.9,0.3-1.8,0.3-1.8
		c0.1-0.8,0-1.4-0.3-1.8c-0.3-0.4-0.7-0.7-1.1-0.8c-0.8-0.2-1.6-0.1-1.7-0.1c-1.4,0-1.9-0.4-2.1-0.7c-0.2-0.3,0-0.7,0-0.7l0,0l0,0
		c0.3-2,0.2-3.4,0-4.2c-0.2-0.9-0.5-1.3-0.5-1.3l0,0l0,0c-0.2-0.1-0.5-0.2-0.9-0.2c-0.4,0-0.8-0.1-1.2-0.1c-0.8,0-1.5,0.1-1.5,0.1
		l-0.1,0l0,0c-0.1,0.1-0.3,0.1-0.5,0c-0.2-0.1-0.5-0.3-0.7-0.6c-0.5-0.5-0.8-1-0.8-1l0-0.1L58.4,24.7z M117,24.7L117,24.7
		c-3.3,2.7-8,1.5-8,1.5l0,0h0c-4.4,0-5.8,0.2-5.8,0.2l-0.1,0l0,0c-0.5,0.6-1,0.6-1.6,0.4c-0.5-0.1-0.9-0.4-0.9-0.4
		c-0.1-0.1-0.2-0.2-0.4-0.3c-0.2-0.1-0.4-0.1-0.6-0.1c-0.4-0.1-0.8-0.1-0.8-0.1h0l0,0c-4.5,0.3-7.4,0-9.1-0.3
		c-0.8-0.2-1.4-0.4-1.7-0.5c-0.3-0.1-0.5-0.2-0.5-0.2l0,0c-0.1-0.1-0.1-0.1-0.2-0.1c-0.1,0-0.2,0-0.3-0.1c-0.2,0-0.4,0-0.7-0.1
		c-0.4,0-0.9,0-0.9,0h-0.1l0,0.1c-0.2,0.4-0.7,1.1-0.8,1.2c0,0-0.1,0-0.2,0c-0.1,0-0.3,0-0.4,0c-0.3,0-0.8,0-1.2,0
		c-0.8,0-1.6-0.1-1.6-0.1l0,0h0c-1,0-1.5,0.3-1.8,0.6C79,26.8,79,27.1,79,27.1v4.2c0.1,1.1,0,1.6-0.1,1.7c0,0.1,0,0,0,0c0,0,0,0,0,0
		l-0.1-0.1l-0.1,0.1c-0.1,0.1-0.3,0.2-0.6,0.3c-0.3,0.1-0.7,0.1-1,0.1c-0.7,0-1.4,0-1.4,0l0,0l0,0c-0.6,0.1-1.1,0.3-1.4,0.7
		c-0.3,0.4-0.5,0.8-0.6,1.3c-0.2,0.9-0.2,1.7-0.2,1.7v0l0,0c0.1,0.6,0.4,1,0.8,1.2c0.4,0.3,0.9,0.4,1.3,0.4c0.9,0.1,1.7,0,1.7-0.1h0
		c1.1,0.1,1.5,0.4,1.6,0.7c0.1,0.3,0.1,0.5,0.1,0.5l0,0v0c0,0.2-0.1,0.4-0.1,0.9c0,0.4,0,1,0,1.7c0,1.3,0,3,0,4.7
		c0,3.3,0.1,6.5,0.1,6.5c0,0.4-0.2,0.7-0.3,0.9c-0.1,0.2-0.3,0.2-0.5,0.3c-0.3,0.1-0.6-0.1-0.6-0.1l0,0h0c-2.3,0-3.4,0.8-3.8,1.6
		c-0.4,0.8-0.3,1.6-0.3,1.7c0.1,1.5,1.1,2.2,2,2.5c0.9,0.3,1.8,0.2,1.8,0.2l0,0c1,0,1.5,0.3,1.7,0.6c0.2,0.3,0.2,0.5,0.2,0.5v0l0,0
		c0,0,0,0.1,0,0.3c0,0.2,0,0.4,0,0.6c0,0.5,0,1.1-0.1,1.7c-0.1,1.2-0.2,2.3-0.2,2.3l0,0l0,0c0.2,1.2,0.9,1.7,1.5,1.8
		c0.6,0.1,1,0,1.1,0h0l16.5,0.4c2.4,1.7,3.9,1.8,4.8,1.3c0.9-0.5,1.2-1.3,1.2-1.4l0,0c0.1-0.1,0.2-0.2,0.3-0.2c0,0,0,0,0,0
		c0,0,0,0,0,0.1l-0.1,0.2l0.2,0c0.2,0,0.5,0,1.1,0.1c0.5,0,1.2,0,2,0c1.6,0,3.6,0,5.5,0c2,0,3.9,0,5.4,0c1.5,0,2.5,0,2.6,0
		c0.7,0.2,1.3,0.1,1.7,0c0.4-0.2,0.7-0.4,0.9-0.7c0.3-0.6,0.3-1.3,0.3-1.3l0,0L124,62c0.1-0.3,0.4-0.6,0.8-0.7
		c0.4-0.1,0.7-0.2,0.7-0.2c2.3,0.3,3.4-0.5,3.9-1.4c0.5-0.9,0.4-1.9,0.4-1.9v0c-0.1-1.5-1-2.2-1.8-2.6c-0.8-0.3-1.7-0.3-1.7-0.3l0,0
		c-1.2,0-1.7-0.4-1.9-0.7c-0.2-0.4-0.2-0.7-0.2-0.7v0c0-1.2,0.2-12.4,0.2-12.4v0c0-0.3,0.1-0.7,0.3-1c0.1-0.3,0.2-0.5,0.3-0.5
		c1.3,0.1,2.2,0.1,2.9-0.2c0.7-0.3,1.2-0.7,1.4-1.1c0.5-0.9,0.3-1.8,0.3-1.8c0.1-0.8,0-1.4-0.3-1.8c-0.3-0.4-0.7-0.7-1.1-0.8
		c-0.8-0.2-1.6-0.1-1.7-0.1c-1.4,0-1.9-0.4-2.1-0.7c-0.2-0.3,0-0.7,0-0.7l0,0c0.3-2,0.2-3.4,0-4.2c-0.2-0.9-0.5-1.3-0.5-1.3l0,0l0,0
		c-0.2-0.1-0.5-0.2-0.9-0.2c-0.4,0-0.8-0.1-1.2-0.1c-0.8,0-1.5,0.1-1.5,0.1l0,0l0,0c-0.1,0.1-0.3,0.1-0.5,0
		c-0.2-0.1-0.5-0.3-0.7-0.6c-0.5-0.5-0.8-1-0.8-1l0-0.1L117,24.7z"/>
	<path d="M72.9,154.9l-0.4-0.2c-0.4-0.2-56.9-24.6-61.3-98.9V9.1h122.5v46.4c0,18.2-5.8,64.6-60.4,98.9L72.9,154.9z M12.7,10.6v44.9
		c4.1,70.4,55.5,95.6,60.2,97.7c53.6-34.2,59.4-79.7,59.4-97.7V10.6L12.7,10.6z"/>
	<path class="st1" d="M29.4,26.5c0,0-1.2,0-1,0.8L28,58.8c0,0,0,1.5,2.3,1.7c0,0,2.9,0.2,3.5,0h6.6c0,0,1.2,1.2,1.2-0.2
		c0,0,0.8-25.5,0.4-30.8c0,0,0-2.3-1.9-2.3c0,0-7.4,0.6-8.1,0L29.4,26.5z M58.2,26.6c-0.3,0-0.7,0.1-1.4,0.4c0,0,0.2,0.8-9.1,0.4
		c-0.2,0-3.7,0-3.9,1.4c0,0-0.2,14.9-0.2,15.3l-0.2,12.4l-0.2,4.3c0,0,0.6,0.8,1,0.2c0,0,3.1-0.8,5.2-0.4c0,0,6.2,0.6,7.7-0.4
		c0,0,1,0.4,1.2-1c0,0,0.4-27.5,0.2-27.9c0,0,0.4-3.9,0.2-4.3C58.6,26.9,58.6,26.6,58.2,26.6L58.2,26.6z M24.1,27.4
		c-0.4,0-1,0.3-1.9,1L22,32.5c0,0,0,2.3-2.1,2.1c0,0-2.3,0-3.5,1c0,0-0.6,2.1,1.7,1.9c0,0,3.5,0,3.7,1.5l-0.2,14.9
		c0,0,0.8,2.5-1.9,2.5c0,0-3.3-0.2-3.3,1.9c0,0,0.6,1.7,3.5,1.2c0,0,2.1,0.4,1.9,2.3v3.7c0,0-0.2,1.5,1.9,1.7H39c0,0,0.8,0,0.8-0.8
		c0,0,0-0.8-1.2-0.8L25.9,65c0,0-2.1,0.6-2.3-2.5c0,0,0.2-26.6,0.2-27.8c0,0,0,0,0,0s0-0.1,0-0.1c0,0,0-0.3,0-0.3c0,0,0,0,0,0
		c0-1,0-4.6,1-6.4C24.9,28,24.7,27.3,24.1,27.4L24.1,27.4z M63.2,27.4c-0.9,0.1-0.9,1.2-0.9,1.2c0.4,0.4,0.6,1.9,0.6,1.9
		c0.2,3.3,0,7,0,10.6c-0.2,11.8-0.6,22.6-0.6,22.6c0,2.3-1.2,1.7-1.2,1.7H47.5c-1.4,0-1.4,0.8-1.4,0.8c0.2,1.2,1.4,0.8,1.4,0.8
		c1.2,0.2,14.9,0,14.9,0c2.1,0.2,1.9-2.5,1.9-2.5c0.2-4.8,0.6-5.2,0.6-5.2c0.4-0.2,2.7-0.2,2.7-0.2c3.7,0.2,2.1-2.3,2.1-2.3
		c-0.4-0.6-2.9-0.6-2.9-0.6c-2.3,0.2-2.1-2.3-2.1-2.3l0.2-14.3c-0.4-1.2,0.6-1.9,0.6-1.9h2.3c3.1,0.2,2.3-1.9,2.3-1.9
		c0-1-2.7-1.5-2.7-1.5c-2.5,0.4-2.3-1-2.3-1v-3.5c0.4-2.3-1-2.3-1-2.3C63.7,27.4,63.5,27.4,63.2,27.4L63.2,27.4z M60.3,27.9
		c-0.3,0-0.6,0.2-0.9,0.7v31c0,0,0.8,2.7,2.1,2.5c0,0,0.2-0.6,0.2-1.7l0.4-29.6C62.2,30.9,61.5,27.7,60.3,27.9L60.3,27.9z M27,28.2
		c-1.9,0-2.1,3.5-2.1,3.5l-0.2,29.4c0.2,1.4,0.6,1.2,0.6,1.2C27.2,61.1,27,59,27,59s0.2-27.9,0.2-28.4S27,28.2,27,28.2L27,28.2z
		 M27.8,61.3c-0.1,0-0.2,0-0.3,0c-0.4,0.1-0.9,0.5-1.4,1.3l0,0l0,0c0,0-0.1,0.4,0,0.8c0,0.2,0.2,0.4,0.4,0.5c0.2,0.1,0.5,0.1,0.9,0
		h10.1l2.7,0.6l0,0c0,0,0.2,0,0.4-0.1c0.2-0.1,0.5-0.2,0.7-0.4c0.1-0.1,0.2-0.2,0.2-0.4c0-0.2,0-0.3-0.1-0.5
		c-0.2-0.4-0.6-0.7-1.3-1.1l0,0h-9.8c0,0-0.5-0.1-1-0.2c-0.5-0.1-1.1-0.3-1.3-0.4l0,0h0C28.3,61.3,28.1,61.3,27.8,61.3L27.8,61.3z
		 M58.6,61.8c-0.6,0-1.4,0.1-1.4,0.1c-1.7,1-11.4,0.2-11.4,0.2c-0.6,0-1.5,1-1.5,1c-0.2,1.9,2.9,1,2.7,1h11.6
		c1.9,0.4,1.9-0.4,1.9-0.4c0-0.6-1.4-1.9-1.4-1.9C58.9,61.9,58.8,61.8,58.6,61.8L58.6,61.8z M43.3,64.2c-0.1,0-0.1,0-0.2,0
		c0,0-1.9,0-1.9,2.5c0,0,0.2,1.9,2.1,1.9c0,0,1.7-0.4,1.7-2.3C45,66.3,44.1,64.1,43.3,64.2L43.3,64.2z M87.8,26.5c0,0-1.2,0-1,0.8
		l-0.4,31.5c0,0,0,1.5,2.3,1.7c0,0,2.9,0.2,3.5,0h6.6c0,0,1.2,1.2,1.2-0.4c0,0,0.8-25.5,0.4-30.8c0,0,0-2.3-1.9-2.3
		c0,0-7.5,0.6-8.1,0L87.8,26.5z M116.5,26.8c-0.2,0-0.6,0.1-1.1,0.4c0,0,0.2,0.8-9.1,0.4c-0.2,0-3.9-0.2-3.9,1.4
		c0,0-0.2,14.9-0.2,15.3l-0.2,12.4l-0.4,4.3c0,0,0.6,0.8,1,0.2c0,0,3.1-0.8,5.2-0.4c0,0,6.2,0.6,7.7-0.4c0,0,1,0.4,1.2-1
		c0,0,0.4-27.5,0.2-27.9c0,0,0.4-3.9,0.2-4.4C117,27.1,117,26.8,116.5,26.8L116.5,26.8z M82.2,27.4c-0.4,0-1,0.3-1.9,1v3.9
		c0,0,0,2.3-2.1,2.1c0,0-2.3,0-3.5,1c0,0-0.6,2.1,1.7,1.9c0,0,3.5,0,3.7,1.5L80,53.6c0,0,0.8,2.5-2.1,2.5c0,0-3.3-0.2-3.3,1.9
		c0,0,0.6,1.7,3.5,1.2c0,0,2.1,0.4,2.1,2.3v3.7c0,0-0.2,1.5,1.7,1.7h15.3c0,0,0.8,0,0.8-0.8c0,0,0-0.8-1.2-0.8L84.3,65
		c0,0-2.1,0.6-2.3-2.5c0,0,0.2-27.7,0-28.2v0.4c0,0-0.2-4.8,1-6.8C83.1,28,82.9,27.3,82.2,27.4L82.2,27.4z M121.6,27.4
		c-0.9,0.1-0.9,1.2-0.9,1.2c0.2,0.4,0.6,1.9,0.6,1.9c0.2,3.3,0,7,0,10.6c-0.2,11.8-0.6,22.6-0.6,22.6c0,2.3-1.2,1.7-1.2,1.7h-13.7
		c-1.4,0-1.5,0.8-1.5,0.8c0.2,1.2,1.7,0.8,1.7,0.6c1.2,0.2,14.9,0,14.9,0c2.1,0.2,1.9-2.5,1.9-2.5c0.2-4.8,0.6-5.2,0.6-5.2
		c0.4-0.2,2.7-0.2,2.7-0.2c3.5,0.2,1.9-2.3,1.9-2.3c-0.4-0.6-2.9-0.6-2.9-0.6c-2.3,0.2-2.1-2.3-2.1-2.3l0.2-14.3
		c-0.4-1.2,0.6-1.9,0.6-1.9h2.3c3.1,0.2,2.3-1.9,2.3-1.9c0-1-2.7-1.5-2.7-1.5c-2.5,0.4-2.3-1-2.3-1v-3.3c0.4-2.3-1-2.3-1-2.3
		C122.1,27.4,121.8,27.4,121.6,27.4L121.6,27.4z M118.7,28c-0.3,0-0.6,0.2-0.9,0.6v31c0,0,0.8,2.7,2.1,2.5c0,0,0.2-0.6,0.2-1.7
		l0.4-29.6C120.5,30.9,119.8,27.9,118.7,28L118.7,28z M85.3,28.2c-1.9,0-2.1,3.5-2.1,3.5l-0.2,29.4c0.2,1.4,0.6,1.2,0.6,1.2
		c1.9-1.2,1.7-3.3,1.7-3.3s0.2-27.9,0.2-28.4S85.3,28.2,85.3,28.2L85.3,28.2z M86.5,61.3c-0.4,0-1,0.2-1.6,1.3c0,0-0.4,1.4,1,1h10.1
		l2.7,0.6c0,0,2.9-0.6,0-2.3h-9.7c0,0-1.9-0.4-2.3-0.6C86.8,61.3,86.7,61.3,86.5,61.3L86.5,61.3z M117.1,61.6
		c-0.5,0-1.1,0.1-1.1,0.1c-1.7,1-11.4,0.2-11.4,0.2c-0.6,0-1.5,1-1.5,1c-0.4,1.9,2.7,1,2.7,1h11.6c1.9,0.4,1.9-0.4,1.9-0.4
		c0-0.6-1.5-1.9-1.5-1.9C117.7,61.6,117.4,61.6,117.1,61.6L117.1,61.6z M101.8,64c-0.1,0-0.1,0-0.2,0c0,0-1.9,0-1.7,2.5
		c0,0,0.2,1.9,2.1,1.9c0,0,1.7-0.2,1.7-2.3C103.8,66.1,102.7,63.9,101.8,64L101.8,64z M71.1,104.2c0,0,0,2.3-0.2,4.6
		c-0.2,1.2,0.4,7,0,9.9c0,0,0,1-2.1,0.2c0,0-12.6,0.2-12.8-0.2c0,0-3.5,0.2-3.7-1.7c0,0,0.4-13.5,0.2-13.9c0,0-0.2-7.2,0-8.1
		c0,0,0.2-6.8,0-7.7c0,0,0-1.7-0.2-2.3c0,0,0-1,1.7-0.4c0,0,0.6,1,3.7,0.6c0,0,2.3,0.4,4.6,0c0,0,5-0.4,6.2,0c0,0,2.1-0.4,2.5,1.9v6
		l0.6,2.1l0.6-0.4l0.2-1.4V87c0,0,0.4-1.2,2.1-1.4c0,0,2.5-0.2,2.9,0c0.4,0.2,5.8,0.4,7.2,0.2c1.4-0.2,1.7,1,6.2-1.2
		c0,0,1.2,0,1.2,0.8c0,0-0.4,8.3,0,9.9c0,0,0,15.3-0.4,16.4l0.2,5c0,0,0.2,2.1-3.3,2.3c0,0,2.1,0.2-11.4-0.2c0,0-2.1-0.2-4.6,1
		c0,0-0.4-0.2-0.4-1.4c0,0,0.4-4.6,0-9.1l-0.2-5L71.1,104.2z M92.8,117.6c0,0,1.2,2.3,1.7,2.5c0,0,1,1.2,0.8-1l0.2-28.4
		c0,0-0.2-1,0-2.5l-1.2-2.1c0,0-1.2-1-1.2,0.6v30L92.8,117.6z M51.6,118.8c0,0,1.4,1.4,3.7,1.4l13.2,0.2c0,0,1.4,0.2,1.4,0.8
		c0,0-0.2,1.2-2.1,0.8L51.8,122l-1.9,0.2c0,0-1.2-0.2,0.6-2.5L51.6,118.8z M48.7,86.4c0,0-1.2,2.1-1,2.7v32.7c0,0-0.2,2.3,1.7,1.7
		c0,0,17.2-0.4,18.4,0c0,0,1.7,0.2,1,1c0,0,0,0.6-1,0.4c0,0-8.1,0.8-15.5,0.4c0,0-5,0.2-5.2-0.2c0,0-0.8-0.2-0.8-2.9
		c0,0,0-2.7-0.2-3.1c0,0,0.2-1.4-2.3-1.7c0,0-3.5,0.6-3.5-1.4c0,0,0.4-1.4,3.9-1.2c0,0,2.5,0.4,1.9-1.7l0.2-14.5
		c0,0,0.4-2.5-1.4-2.7h-2.1c0,0-2.9,0-2.7-1.7c0,0,1-1.7,3.9-1.4c0,0,2.1,0.4,2.3-2.1c0,0,0-5,1-5.2C47,85.5,49.5,85.7,48.7,86.4
		 M50.4,86.1c0,0,0.6,0,0.6,1.2L50.8,117c0,0,0.2,1.9-1.4,3.3c0,0-0.8,1-0.8-0.6l0.4-30.2C48.9,89.5,48.9,87.2,50.4,86.1
		 M73.5,120.9c0,0,1.7-1.2,2.5-1c0,0,8.9,0.6,11.6,0.2c2.7-0.4,1-0.2,1-0.2s2.3,0,3.1-0.8c0,0,0.6-0.2,1,0.4l1.4,1.7
		c0,0,0,1-1.7,0.8c0,0-15.9,0-16.6,0.2C76.2,122.2,73.3,122.6,73.5,120.9 M74.6,123.6c0,0,1.2-0.6,2.1-0.4
		c0.8,0.2,12.2-0.2,12.2-0.2s5,0.4,5.8-0.4l1.2-0.4c0,0,0.4-0.6,0.4-1.4v-3.5l0.2-1V89c0,0,0.4-2.1-0.8-3.3c0,0,0-0.8,0.4-0.6
		c0.4,0.2,0.2,0,0.2,0s1.7-0.4,2.1,0.2c0,0,0.8,2.3,0,3.7c0,0-0.2,2.9,1.2,2.9c0,0,0.6,0.6,1.7,0.2c0,0,2.5,0.2,2.5,1
		c0,0,0,1.9-1.7,1.4l-2.3,0.2c0,0-1.7,0.4-1.4,2.1c0.2,1.9,0,15.3,0,15.3s0,1.7,2.5,1.4c0,0,3.1-0.2,3.1,0.8c0,0,0.8,1.9-1.4,2.1
		c0,0-4.1-0.2-3.7,1c0,0-0.2,2.7-0.4,3.3c0,0,0.4,2.3,0,2.7c0,0-0.2,1.2-2.9,1c0,0-16.8,0-19.5,0.2
		C75.8,125.3,74.2,125.1,74.6,123.6 M71.7,121.7c0,0,1.7,0.2,1.7,1.9s0,2.5-0.8,2.7c-1,0.2-2.1-0.2-2.3-1.4
		C69.8,123.6,70.2,122.2,71.7,121.7"/>
	<path d="M40.8,37.9L40,39.8c0,0-2.1,9.5-3.3,11.4c0,0-0.2,2.1-1.9,0.4c0,0-3.9-12-4.1-12.4l-1.2-0.8c0,0-0.8-1,0.6-1.2h3.7
		c0,0,1.2,1-0.4,2.1c0,0,0.2,1.7,2.3,7.7c0,0,0.6,2.3,1.2,0.6l2.1-7l-0.6-2.1c0,0-0.6-1,0.2-1C38.6,37.3,40.6,37.1,40.8,37.9
		 M46.4,39.6v10.3l-0.2,0.8c0,0-1,1.2-0.2,1.4c0,0-0.8,0.6,6.2,0.6c0,0,2.7,0.4,2.1-3.1c0,0-0.2-1.2-1.2,0.6c0,0-0.2,1.7-3.9,1
		c0,0-0.8-0.6-0.8-1.4v-4.3c0,0,0-1,1.7-1c0,0,1.9,1.2,2.1,0.6c0,0,0.6-1.7,0-2.5c0,0-0.8,0-1,0.2c0,0-0.6,1.2-2.3,0.4
		c0,0-0.8-1.7-0.2-2.9c0,0-0.2-2.5,1.4-2.3c0,0,2.1,0.4,2.1,1c0,0,0.4,1.2,1-0.2l-0.4-1.4c0,0-0.2-0.6-0.8-0.4c0,0-3.3,0.4-3.7,0
		l-2.7,0.2c0,0-0.4,1,0.8,1.4C46.2,38.9,46.4,39.2,46.4,39.6 M105.8,37.9c-0.2-0.8,1.7-0.8,1.7-0.8l1,0.2c0.6,0,1.4,0.2,1.4,0.2
		c0.6,1-0.4,1.7-0.4,1.7l-0.4,1.2v10.3c0.2,0.4,1,1.4,1,1.4c0,0.8-1,0.6-1,0.6h-2.9c-0.8,0-0.6-1-0.6-1c1-0.4,1.2-2.3,1.2-2.3v-9.7
		L105.8,37.9z M92.6,47l-0.2,3.1l0.8,1.4c0.6,0.8-0.4,1.4-0.4,1.4l-3.1-0.4c-0.6-0.2,0-1.2,0-1.2c0.8-0.4,0.8-1.7,0.8-1.7v-9.9
		c0-0.4-0.8-1.4-0.8-1.4c-0.6,0-0.4-1-0.4-1c0.2-0.4,1.9-0.2,1.9-0.2h4.1c3.9,1.2,3.3,4.1,3.3,4.1c0.2,2.9-2.7,3.9-2.7,3.9l-0.2,1.7
		l2.9,4.6c0.4,0.4,0.4,0.8,0.4,0.8c-0.4,1-2.1,0-2.1,0l-3.5-5.6C93,46.2,92.6,47,92.6,47 M92.6,39.2v5.2c1.9,1.4,2.9-0.6,2.9-0.6
		c2.5-2.3,0-4.6-0.4-5.2c-0.4-0.6-2.3,0-2.3,0L92.6,39.2z M62.4,97.1c0,0,0.2,7.2,0,8.3v1.7c0,0,0.4,1,1,1.4c0,0,0.4,1.4-0.6,1.2
		c0,0-2.5-0.2-3.1,0c0,0-1.4,0,0-1.7c0,0,0.4-0.6,0.4-2.5c0,0,0-8.3,0.2-8.7c0,0,0.2-1-0.4-1.4h-1.2l-1.4,1.4c0,0-0.4,1.4-1,0v-0.8
		l0.8-2.3h0.6c0,0,0.8,0.6,1.7,0.8h4.6l1.7-0.8c0,0,0.6,0,0.4,1c0,0,0.2,2.3-1,2.5c0,0-0.8-0.2-1.2-1.4
		C63.6,95.7,62.4,94.8,62.4,97.1 M83.9,94.4c0,0-3.7-0.4-3.7,3.7c0,0-0.4,2.7,3.7,4.6c0,0,3.1,1.4,2.9,3.3c0,0-0.4,3.3-3.7,1.7
		c0,0-1.7-0.8-1.4-1.7c0,0-0.4-1-1-0.8c0,0-0.6,0.2-0.4,3.5c0,0,0,1.2,1.4,0l0.8,0.2c0,0,2.7,2.1,5-0.4c0,0,2.5-2.3,0.6-5
		c0,0-1.2-2.1-3.5-2.9c0,0-2.1-1-2.7-2.7c0,0,0.6-2.9,3.3-1.4c0,0,1,1.2,1.7,1.4c0,0,0.8,0,0.6-1.9l-0.2-1.4c0,0-0.2-1-1.7,0
		C85.5,94.4,84.3,95,83.9,94.4 M72.1,92.4c0.6,0.4,0.8,1.4,0.8,1.4c2.1,5.2,3.7,12.8,3.7,12.8c0.4,1,1.4,1.7,1.4,1.7
		c1.7,0.6,0,1,0,1c-0.6,0.2-2.9,0-2.9,0c-1.2-0.2-0.6-0.6-0.6-0.6c0.4-0.4,0-2.5,0-2.5c0-0.8-1-2.1-1-2.1c-0.4-0.2-1,0.6-1,0.6
		s-1,0.4-1.2,0s-0.8-0.8-0.8-0.8c-1.2,0-1.7,2.9-1.7,2.9c0.6,2.5,0,2.1,0,2.1c-0.6,0.8-2.5,0.2-2.5,0.2c-0.8-0.2-0.2-0.8-0.2-0.8
		c1-0.2,1.4-1.4,1.4-1.4c0.4-0.6,3.7-13.5,3.7-13.5C71.1,93.2,71.3,91.9,72.1,92.4 M70.4,99c0,0.4-0.8,3.3-0.8,3.3l0.6,1h2.1
		c0.4,0,0.6-0.4,0.6-1c0-0.4-1-3.5-1-3.5l-0.4-0.6L70.4,99z"/>
</g>
</svg>
